<svg width="24" height="26" viewBox="0 0 24 26" fill="none" xmlns="http://www.w3.org/2000/svg">
<path d="M13 2L13 1.1H13V2ZM20 9H20.9H20ZM22 16.8184L22.9 16.8185V16.8184H22ZM18.8574 20.4961L18.981 21.3876L18.9811 21.3876L18.8574 20.4961ZM13 21V21.9H13L13 21ZM7.14258 20.4961L7.01891 21.3876L7.01896 21.3876L7.14258 20.4961ZM4 16.8184H3.1V16.8185L4 16.8184ZM6 9L5.1 9V9H6ZM4.68159 14.6397L3.94266 14.1259H3.94266L4.68159 14.6397ZM21.3184 14.6397L20.5795 15.1535L21.3184 14.6397ZM13 2L13 2.9C16.3689 2.9 19.1 5.63107 19.1 9H20H20.9C20.9 4.63695 17.363 1.1 13 1.1L13 2ZM20 9H19.1V11.6731H20H20.9V9H20ZM21.3184 14.6397L20.5795 15.1535C20.9077 15.6255 21.1 16.1983 21.1 16.8184H22H22.9C22.9 15.8193 22.5885 14.8899 22.0573 14.1259L21.3184 14.6397ZM22 16.8184L21.1 16.8183C21.0998 18.2333 20.0937 19.416 18.7337 19.6046L18.8574 20.4961L18.9811 21.3876C21.2724 21.0697 22.8997 19.0895 22.9 16.8185L22 16.8184ZM18.8574 20.4961L18.7338 19.6046C16.9281 19.855 14.7131 20.1 13 20.1L13 21L13 21.9C14.8435 21.9 17.1604 21.64 18.981 21.3876L18.8574 20.4961ZM13 21V20.1C11.2869 20.1 9.07191 19.855 7.26619 19.6046L7.14258 20.4961L7.01896 21.3876C8.83962 21.64 11.1565 21.9 13 21.9V21ZM7.14258 20.4961L7.26625 19.6046C5.90633 19.416 4.90016 18.2333 4.9 16.8183L4 16.8184L3.1 16.8185C3.10026 19.0895 4.72762 21.0697 7.01891 21.3876L7.14258 20.4961ZM4 16.8184H4.9C4.9 16.1983 5.09229 15.6255 5.42052 15.1535L4.68159 14.6397L3.94266 14.1259C3.41144 14.8899 3.1 15.8193 3.1 16.8184H4ZM6 11.6731H6.9V9H6H5.1V11.6731H6ZM6 9L6.9 9C6.9 5.63106 9.63106 2.9 13 2.9V2V1.1C8.63695 1.1 5.1 4.63695 5.1 9L6 9ZM4.68159 14.6397L5.42052 15.1535C6.00048 14.3194 6.9 13.1115 6.9 11.6731H6H5.1C5.1 12.4356 4.61916 13.153 3.94266 14.1259L4.68159 14.6397ZM20 11.6731H19.1C19.1 13.1115 19.9995 14.3194 20.5795 15.1535L21.3184 14.6397L22.0573 14.1259C21.3808 13.153 20.9 12.4357 20.9 11.6731H20Z" fill="#121212"/>
<path d="M15.5 23.6591C14.9625 24.4674 14.0435 25.0002 13 25.0002C11.9565 25.0002 11.0375 24.4674 10.5 23.6591" stroke="#121212" stroke-width="1.8" stroke-linecap="round"/>
</svg>
